PathFileType	4	(X/Y/Z)	Walk8.trc
DataRate	CameraRate	NumFrames	NumMarkers	Units	OrigDataRate	OrigDataStartFrame	OrigNumFrames
200.000000	200.000000	8	59	mm	200.000000	871	1039
Frame#	Times		RFA1		LFHD		RFHD		RCAR		RWRR		RACR1		LMT1		RUA1		LTH3		LTB1		LLFC		LACR1		LTB2		LToe		LASI		LTB3		LElbow		LUA1		RASI		RLFC		CLAV		STRN		RTH3		LWRU		LFA1		RBack		RMT5		RMT1		LCAR		RCAL		LTH4		RTB2		RToe		RLMAL		LTH1		LBHD		LPSI		RPSI		RTH1		RTB1		RTH2		RTB4		RTB3		LTB4		C7		RElbowM		RBHD		LMT5		RElbow		RMMAL		LWRR		RTH4		LTH2		LLMAL		LMMAL		T10		RWRU		LCAL		LElbowM
			X1	Y1	Z1	X2	Y2	Z2	X3	Y3	Z3	X4	Y4	Z4	X5	Y5	Z5	X6	Y6	Z6	X7	Y7	Z7	X8	Y8	Z8	X9	Y9	Z9	X10	Y10	Z10	X11	Y11	Z11	X12	Y12	Z12	X13	Y13	Z13	X14	Y14	Z14	X15	Y15	Z15	X16	Y16	Z16	X17	Y17	Z17	X18	Y18	Z18	X19	Y19	Z19	X20	Y20	Z20	X21	Y21	Z21	X22	Y22	Z22	X23	Y23	Z23	X24	Y24	Z24	X25	Y25	Z25	X26	Y26	Z26	X27	Y27	Z27	X28	Y28	Z28	X29	Y29	Z29	X30	Y30	Z30	X31	Y31	Z31	X32	Y32	Z32	X33	Y33	Z33	X34	Y34	Z34	X35	Y35	Z35	X36	Y36	Z36	X37	Y37	Z37	X38	Y38	Z38	X39	Y39	Z39	X40	Y40	Z40	X41	Y41	Z41	X42	Y42	Z42	X43	Y43	Z43	X44	Y44	Z44	X45	Y45	Z45	X46	Y46	Z46	X47	Y47	Z47	X48	Y48	Z48	X49	Y49	Z49	X50	Y50	Z50	X51	Y51	Z51	X52	Y52	Z52	X53	Y53	Z53	X54	Y54	Z54	X55	Y55	Z55	X56	Y56	Z56	X57	Y57	Z57	X58	Y58	Z58	X59	Y59	Z59

871	4.355	65.787	931.87	385.62	175.26	1582.6	42.087	185.99	1581.6	139.3	93.328	770.93	387.52	57.917	825.61	413.36	49.255	1369.3	270.4	-101.8	60.301	-83.499	26.403	1221.3	352.51	117.95	575.63	-161.87	60.801	339.16	-85.095	90.138	504.14	-152.76	60.435	1381.2	-88.945	-26.542	307.78	-136.58	-73.28	41.201	-100.05	137.42	989.92	-112.06	-67.16	224.72	-83.094	10.179	1093.9	-218.21	53.754	1237.5	-174.23	151.32	962.75	236.22	68.008	460.98	213.26	127.98	1349.9	92.714	192.91	1236.8	105.95	68.16	554.23	230.85	115.34	873.35	-264.98	98.449	990.2	-232.05	-84.888	1308	189.81	177.67	26.732	193.36	187.08	35.298	100.41	164.04	838.32	-252.74	-1.3817	27.12	143.22	113.41	662.75	-174.89	95.399	273.03	191.64	230.46	33.052	107.8	53.47	64.999	185.92	112.16	746.7	-187.32	21.399	1571.4	30.403	-98.403	991.25	-28.037	-103.74	985.76	106.28	89.976	719.22	268.48	121.15	353.55	127.17	129.61	639.24	228.31	103.83	268.37	130.59	99.11	183.84	132.12	-5.3273	285.21	-84.096	-32.14	1420.5	104.79	-49.367	1042.7	303.97	17.215	1582.8	166.49	-142.22	79.424	-155.87	-6.3959	1056.3	384.74	70.248	74.201	100.36	149.62	883.3	-199.05	72.92	639.82	249.64	167.69	667.92	-148.32	-180.9	194	-119.26	-146.42	173.75	-44.616	-79.048	1091.8	61.468	84.97	829.25	344.43	-230.6	192.75	-59.417	-11.446	1054	-120.71
872	4.36	71.593	932.42	386.58	179.9	1582.5	42.541	190.65	1581.6	139.75	99.678	771.61	388.79	64.123	826.2	414.56	53.883	1369.6	270.89	-88.333	60.012	-84.142	31.4	1221.6	353.08	124.26	576.57	-162.01	70.092	339.78	-85.733	97.276	505.02	-152.67	64.676	1381.3	-88.563	-17.287	307.87	-136.88	-59.409	41.273	-100.67	141.03	989.61	-111.92	-56.654	224.07	-83.768	13.064	1094.1	-217.64	57.374	1237.5	-173.71	155.1	962.01	236.52	69.122	460.93	213.44	132.28	1350	93.225	197.25	1236.5	106.03	69.885	554.18	231.09	114.79	872.28	-265.88	99.825	989.34	-232.62	-80.553	1308.4	190.59	177.65	26.722	193.39	187.11	35.301	100.43	163.41	836.96	-254.52	-1.378	27.155	143.14	119.06	663.67	-174.97	95.859	272.95	191.8	230.55	33.004	107.91	53.522	65.01	185.83	117.09	747.68	-187.27	26.003	1571.8	30.897	-94.619	991.65	-27.328	-99.75	986.29	107.01	92.465	719.05	269	121.9	353.45	127.38	131.76	638.83	228.69	104.37	268.29	130.76	99.486	183.78	132.23	4.5705	285.04	-84.708	-27.78	1420.8	105.25	-44.184	1042.7	305.1	21.893	1583.3	166.97	-129.01	78.537	-156.5	-0.96964	1056.6	385.73	70.311	74.162	100.32	150.02	881.77	-200.41	74.806	640.09	250.28	173.4	669.24	-148.55	-170.15	192	-119.54	-135.37	172.09	-44.944	-74.991	1092.2	62.108	90.968	829.83	345.54	-220.17	189.47	-59.839	-8.4066	1054.1	-120.13
873	4.365	77.4	932.95	387.53	184.54	1582.3	42.969	195.31	1581.5	140.18	106.03	772.25	390.08	70.329	826.78	415.76	58.518	1369.9	271.35	-74.584	59.623	-84.681	36.365	1221.8	353.62	130.48	577.46	-162.12	79.401	340.33	-86.296	104.4	505.85	-152.55	68.943	1381.3	-88.174	-7.9381	307.78	-137.13	-45.237	41.286	-101.16	144.64	989.23	-111.8	-46.028	223.28	-84.346	15.952	1094.4	-217.09	60.989	1237.5	-173.21	158.85	961.24	236.83	70.252	460.88	213.62	136.57	1350.1	93.719	201.58	1236.2	106.03	71.613	554.11	231.31	114.21	871.24	-266.8	101.18	988.48	-233.2	-76.223	1308.7	191.35	177.63	26.713	193.42	187.14	35.303	100.44	162.73	835.61	-256.32	-1.3697	27.196	143.05	124.64	664.52	-175.03	96.334	272.86	191.96	230.64	32.952	108.03	53.583	65.022	185.72	121.96	748.59	-187.25	30.613	1572.1	31.363	-90.813	992.05	-26.671	-95.786	986.8	107.68	94.969	718.86	269.52	122.7	353.35	127.61	133.92	638.39	229.07	104.96	268.2	130.93	99.88	183.7	132.35	14.512	284.77	-85.216	-23.427	1421.1	105.69	-38.976	1042.7	306.19	26.578	1583.8	167.42	-115.49	77.459	-157.05	4.4524	1056.9	386.69	70.375	74.122	100.27	150.38	880.25	-201.8	76.643	640.38	250.94	179.05	670.51	-148.79	-159.19	189.72	-119.81	-124.14	170.23	-45.245	-70.942	1092.6	62.722	96.985	830.37	346.65	-209.53	185.89	-60.293	-5.3398	1054.3	-119.57
874	4.37	83.207	933.46	388.48	189.19	1582.1	43.375	199.98	1581.4	140.58	112.37	772.88	391.38	76.534	827.33	416.96	63.163	1370.1	271.79	-60.568	59.137	-85.142	41.293	1221.9	354.12	136.64	578.29	-162.19	88.724	340.82	-86.773	111.51	506.61	-152.41	73.234	1381.3	-87.778	1.5092	307.51	-137.32	-30.782	41.245	-101.56	148.26	988.81	-111.71	-35.283	222.34	-84.818	18.84	1094.6	-216.56	64.601	1237.5	-172.71	162.59	960.45	237.17	71.401	460.82	213.79	140.86	1350.1	94.194	205.91	1235.9	105.97	73.346	554.02	231.51	113.59	870.23	-267.73	102.51	987.62	-233.79	-71.895	1309.1	192.1	177.61	26.704	193.45	187.17	35.303	100.46	162	834.3	-258.13	-1.3575	27.241	142.96	130.16	665.31	-175.07	96.83	272.76	192.13	230.74	32.894	108.15	53.653	65.037	185.62	126.77	749.42	-187.26	35.231	1572.4	31.803	-86.988	992.45	-26.068	-91.847	987.3	108.3	97.488	718.66	270.03	123.55	353.22	127.87	136.09	637.92	229.45	105.58	268.11	131.12	100.29	183.63	132.47	24.5	284.4	-85.618	-19.08	1421.3	106.13	-33.746	1042.7	307.24	31.27	1584.2	167.85	-101.68	76.211	-157.54	9.8686	1057.1	387.62	70.439	74.082	100.22	150.69	878.75	-203.22	78.428	640.71	251.63	184.62	671.71	-149.03	-148.01	187.19	-120.07	-112.73	168.17	-45.518	-66.901	1092.9	63.31	103.02	830.89	347.77	-198.67	182.01	-60.759	-2.2438	1054.4	-119.01
875	4.375	89.013	933.94	389.42	193.85	1581.8	43.759	204.65	1581.2	140.96	118.71	773.48	392.68	82.737	827.86	418.17	67.819	1370.2	272.19	-46.299	58.561	-85.55	46.181	1222	354.58	142.74	579.06	-162.2	98.059	341.25	-87.152	118.61	507.31	-152.25	77.546	1381.3	-87.373	11.059	307.04	-137.46	-16.061	41.156	-101.9	151.91	988.35	-111.63	-24.42	221.24	-85.177	21.725	1094.8	-216.04	68.212	1237.5	-172.24	166.3	959.66	237.52	72.576	460.76	213.96	145.16	1350.1	94.646	210.24	1235.5	105.84	75.086	553.92	231.68	112.94	869.25	-268.67	103.82	986.76	-234.39	-67.566	1309.4	192.82	177.59	26.697	193.47	187.21	35.302	100.48	161.21	833.02	-259.95	-1.3423	27.291	142.87	135.61	666.03	-175.1	97.348	272.66	192.3	230.84	32.833	108.27	53.729	65.056	185.53	131.51	750.17	-187.29	39.856	1572.6	32.216	-83.144	992.85	-25.519	-87.932	987.78	108.86	100.03	718.44	270.54	124.47	353.09	128.15	138.27	637.45	229.84	106.24	268.01	131.31	100.71	183.55	132.59	34.537	283.93	-85.91	-14.737	1421.5	106.57	-28.496	1042.6	308.24	35.968	1584.6	168.25	-87.6	74.815	-157.98	15.278	1057.3	388.52	70.502	74.046	100.17	150.97	877.26	-204.66	80.163	641.08	252.33	190.14	672.86	-149.27	-136.64	184.41	-120.33	-101.13	165.91	-45.764	-62.869	1093.2	63.872	109.07	831.38	348.89	-187.56	177.84	-61.223	0.88285	1054.5	-118.47
876	4.38	94.817	934.4	390.36	198.51	1581.5	44.123	209.33	1580.9	141.32	125.05	774.06	394	88.936	828.38	419.36	72.488	1370.4	272.58	-31.786	57.903	-85.925	51.028	1222.1	355.02	148.8	579.77	-162.16	107.4	341.61	-87.422	125.71	507.96	-152.06	81.877	1381.2	-86.963	20.715	306.39	-137.54	-1.0914	41.024	-102.21	155.57	987.86	-111.57	-13.44	220.01	-85.418	24.602	1095.1	-215.55	71.824	1237.5	-171.77	170	958.88	237.89	73.779	460.71	214.13	149.45	1350.1	95.072	214.56	1235	105.65	76.836	553.8	231.84	112.26	868.32	-269.62	105.1	985.92	-234.99	-63.234	1309.8	193.52	177.58	26.691	193.49	187.24	35.3	100.49	160.38	831.78	-261.77	-1.3253	27.343	142.78	141	666.67	-175.09	97.891	272.56	192.48	230.95	32.769	108.39	53.811	65.078	185.44	136.19	750.83	-187.34	44.489	1572.8	32.604	-79.285	993.24	-25.026	-84.04	988.24	109.36	102.58	718.21	271.03	125.44	352.94	128.44	140.47	636.96	230.23	106.93	267.9	131.5	101.15	183.47	132.71	44.625	283.38	-86.088	-10.395	1421.7	107	-23.23	1042.5	309.21	40.674	1585	168.63	-73.27	73.293	-158.38	20.678	1057.5	389.38	70.564	74.014	100.12	151.2	875.79	-206.13	81.851	641.48	253.03	195.59	673.95	-149.5	-125.06	181.39	-120.56	-89.344	163.47	-45.982	-58.844	1093.5	64.406	115.13	831.84	350.01	-176.21	173.41	-61.67	4.0409	1054.7	-117.94
877	4.385	100.62	934.83	391.3	203.19	1581.2	44.466	214	1580.7	141.66	131.39	774.61	395.31	95.131	828.87	420.55	77.169	1370.5	272.93	-17.043	57.169	-86.287	55.832	1222.2	355.44	154.82	580.42	-162.06	116.75	341.91	-87.572	132.8	508.54	-151.85	86.224	1381.2	-86.548	30.482	305.57	-137.56	14.111	40.857	-102.5	159.26	987.33	-111.51	-2.3416	218.63	-85.541	27.469	1095.3	-215.07	75.439	1237.5	-171.33	173.68	958.11	238.29	75.016	460.67	214.3	153.75	1350	95.469	218.88	1234.5	105.39	78.599	553.68	231.98	111.57	867.44	-270.56	106.37	985.09	-235.6	-58.897	1310.1	194.21	177.57	26.685	193.51	187.27	35.297	100.5	159.49	830.58	-263.58	-1.3073	27.399	142.7	146.35	667.25	-175.06	98.463	272.45	192.67	231.05	32.701	108.52	53.898	65.105	185.36	140.81	751.4	-187.41	49.128	1573	32.967	-75.414	993.62	-24.587	-80.173	988.67	109.8	105.16	717.97	271.51	126.46	352.78	128.76	142.69	636.47	230.62	107.66	267.79	131.71	101.6	183.39	132.83	54.764	282.74	-86.149	-6.0521	1421.9	107.42	-17.948	1042.3	310.13	45.385	1585.4	168.97	-58.706	71.665	-158.77	26.069	1057.7	390.22	70.624	73.99	100.08	151.4	874.36	-207.61	83.503	641.91	253.74	200.99	674.99	-149.71	-113.27	178.16	-120.79	-77.365	160.84	-46.177	-54.827	1093.7	64.914	121.21	832.27	351.14	-164.59	168.72	-62.092	7.2306	1054.8	-117.42
878	4.39	106.41	935.23	392.23	207.86	1580.8	44.791	218.68	1580.3	141.98	137.73	775.15	396.62	101.32	829.33	421.73	81.865	1370.6	273.25	-2.0789	56.37	-86.647	60.593	1222.2	355.83	160.82	581.02	-161.89	126.08	342.15	-87.592	139.88	509.07	-151.6	90.586	1381.1	-86.134	40.362	304.59	-137.51	29.528	40.661	-102.79	162.97	986.78	-111.46	8.8752	217.11	-85.548	30.324	1095.5	-214.61	79.057	1237.5	-170.9	177.35	957.36	238.7	76.292	460.63	214.47	158.06	1349.9	95.833	223.18	1234	105.06	80.38	553.56	232.11	110.85	866.62	-271.52	107.61	984.29	-236.2	-54.553	1310.3	194.88	177.57	26.68	193.52	187.29	35.295	100.51	158.56	829.42	-265.39	-1.2892	27.456	142.63	151.65	667.76	-174.99	99.066	272.35	192.86	231.16	32.629	108.64	53.986	65.136	185.29	145.37	751.88	-187.49	53.775	1573.2	33.305	-71.532	993.99	-24.201	-76.33	989.07	110.18	107.77	717.74	271.97	127.52	352.6	129.09	144.92	635.98	231.02	108.42	267.68	131.91	102.06	183.32	132.95	64.953	282.02	-86.091	-1.7045	1422	107.84	-12.652	1042.1	311.01	50.101	1585.7	169.3	-43.923	69.951	-159.14	31.451	1057.8	391.02	70.682	73.974	100.04	151.57	872.96	-209.11	85.128	642.35	254.43	206.34	675.99	-149.91	-101.27	174.73	-121	-65.192	158.05	-46.351	-50.816	1093.9	65.394	127.3	832.67	352.26	-152.69	163.79	-62.485	10.451	1054.9	-116.9
